# xmcd
#
# Track frame offsets: 
#        150
#        15723
#        27688
#        40829
#        54350
#        65922
#        75113
#        93883
#        106507
#        125319
#        142933
#        152979
#
# Disc length: 2201 seconds
#
# Revision: 0
# Processed by: cddbd v1.5.2PL0 Copyright (c) Steve Scherf et al.
# Submitted via: ExactAudioCopy v0.95b3
#
DISCID=8d08970c
DTITLE=The Beatles  - Way Beyond Compare - Episode 09 The Star Club (2
DTITLE=8 December 1962)  FLAC
DYEAR=1900
DGENRE=
TTITLE0=Intro and A Taste of Honey
TTITLE1=Intro and Till There Was You
TTITLE2=Intro and Where Have You Been All My Life
TTITLE3=Intro and Lend Me Your Comb
TTITLE4=Intro and Your Feet's Too Big
TTITLE5=Intro and I'm Talking About You
TTITLE6=Intro and To Know Her Is To Love Her
TTITLE7=Intro and Everybody's Trying To Be My Baby
TTITLE8=Intro and Matchbox
TTITLE9=Intro and Little Queenie
TTITLE10=Intro and Nothin' Shakin' (But The Leaves On The Trees)
TTITLE11=Intro and Roll Over Beethoven
EXTD=
EXTT0=
EXTT1=
EXTT2=
EXTT3=
EXTT4=
EXTT5=
EXTT6=
EXTT7=
EXTT8=
EXTT9=
EXTT10=
EXTT11=
PLAYORDER=
